HIERARCHY
ROOT Joint1
{
	OFFSET 0.000000 0.000000 0.000000
	CHANNELS 6 Xposition Yposition Zposition Xrotation Yrotation Zrotation
	JOINT Joint2
	{
		OFFSET -0.000000 0.000000 1.456275
		CHANNELS 6 Xposition Yposition Zposition Xrotation Yrotation Zrotation
		JOINT Joint3
		{
			OFFSET -0.000000 0.000002 1.471446
			CHANNELS 6 Xposition Yposition Zposition Xrotation Yrotation Zrotation
			JOINT Joint4
			{
				OFFSET 0.625745 0.000000 0.917755
				CHANNELS 6 Xposition Yposition Zposition Xrotation Yrotation Zrotation
				JOINT Joint5
				{
					OFFSET -0.629534 0.000001 0.940221
					CHANNELS 6 Xposition Yposition Zposition Xrotation Yrotation Zrotation
					JOINT Joint6
					{
						OFFSET -0.000001 0.113772 1.960660
						CHANNELS 6 Xposition Yposition Zposition Xrotation Yrotation Zrotation
						JOINT Joint7
						{
							OFFSET -0.669733 -0.113771 0.388340
							CHANNELS 6 Xposition Yposition Zposition Xrotation Yrotation Zrotation
							End Site
							{
								OFFSET 0.005509 0.005509 0.438980
							}
						}
					}
				}
			}
		}
	}
}
MOTION
Frames: 22
Frame Time: 0.041667
0.000000 0.000000 0.000000 -0.000000 1.019410 -0.055669 -0.000000 -0.000000 1.456275 0.000000 -44.965673 -0.000000 -0.000000 0.000002 1.471446 -0.000000 -1.133462 -0.021329 0.625745 0.000000 0.917755 0.000004 134.984578 -0.000001 -0.629534 0.000001 0.940221 -0.000000 1.709737 0.011119 -0.000001 0.113772 1.960661 -88.309531 89.965797 -0.003441 -0.669733 -0.113771 0.388340 -0.705491 3.566198 134.982133 
0.000000 0.000000 0.000000 -0.000000 1.019410 -0.215436 -0.000000 -0.000000 1.456275 0.000000 -44.907275 0.000000 -0.000000 0.000002 1.471446 -0.000000 -1.133458 0.001116 0.625745 0.000000 0.917755 0.000004 134.868314 -0.000001 -0.629534 0.000001 0.940221 0.000000 1.709736 0.086528 -0.000001 0.113772 1.960660 -88.307803 89.951399 -0.002574 -0.669733 -0.113771 0.388339 -0.706224 3.566198 135.023387 
0.000000 0.000000 0.000000 -0.000000 1.019410 -0.473523 -0.000000 0.000000 1.456275 -0.000000 -44.812926 0.000000 -0.000000 0.000002 1.471446 -0.000000 -1.133459 0.037373 0.625744 0.000000 0.917755 0.000004 134.680552 -0.000001 -0.629534 0.000001 0.940221 -0.000000 1.709736 0.208343 -0.000001 0.113772 1.960660 -88.306546 89.928149 -0.001877 -0.669733 -0.113771 0.388340 -0.707408 3.566197 135.090077 
0.000000 0.000000 0.000000 -0.000000 1.019410 -0.823224 -0.000000 -0.000000 1.456275 -0.000000 -44.685095 -0.000000 -0.000000 0.000002 1.471446 0.000000 -1.133461 0.086501 0.625745 0.000000 0.917755 0.000004 134.426114 -0.000001 -0.629534 0.000001 0.940221 0.000000 1.709736 0.373398 -0.000001 0.113772 1.960660 -88.305767 89.896641 -0.001212 -0.669733 -0.113771 0.388340 -0.709013 3.566193 135.180427 
0.000000 0.000000 0.000000 -0.000000 1.019410 -1.257836 -0.000000 -0.000000 1.456275 0.000000 -44.526218 -0.000000 -0.000000 0.000002 1.471446 0.000000 -1.133464 0.147557 0.625744 0.000000 0.917755 0.000004 134.109904 -0.000001 -0.629534 0.000001 0.940221 -0.000000 1.709736 0.578531 -0.000001 0.113772 1.960660 -88.305200 89.857484 -0.000865 -0.669733 -0.113771 0.388339 -0.711007 3.566185 135.292715 
0.000000 0.000000 0.000000 -0.000000 1.019410 -1.770655 -0.000000 0.000000 1.456275 -0.000000 -44.338754 -0.000000 -0.000000 0.000002 1.471446 0.000000 -1.133461 0.219600 0.625745 0.000000 0.917755 0.000004 133.736771 -0.000001 -0.629534 0.000001 0.940221 -0.000000 1.709736 0.820578 -0.000001 0.113772 1.960660 -88.304900 89.811278 -0.000678 -0.669733 -0.113771 0.388340 -0.713360 3.566170 135.425193 
0.000000 0.000000 0.000000 -0.000000 1.019410 -2.354978 -0.000000 0.000000 1.456275 -0.000000 -44.125153 0.000000 -0.000001 0.000002 1.471445 0.000000 -1.133463 0.301689 0.625744 0.000000 0.917754 0.000004 133.311646 -0.000001 -0.629534 0.000001 0.940221 0.000000 1.709736 1.096373 -0.000001 0.113772 1.960661 -88.304654 89.758630 -0.000523 -0.669733 -0.113771 0.388339 -0.716042 3.566146 135.576181 
0.000000 0.000000 0.000000 -0.000000 1.019410 -3.004102 -0.000000 -0.000000 1.456275 0.000000 -43.887865 0.000000 -0.000000 0.000002 1.471446 0.000000 -1.133461 0.392881 0.625745 0.000000 0.917755 0.000004 132.839352 -0.000001 -0.629534 0.000001 0.940221 -0.000000 1.709736 1.402754 -0.000000 0.113772 1.960660 -88.304504 89.700150 -0.000424 -0.669733 -0.113771 0.388340 -0.719021 3.566112 135.743890 
0.000000 0.000000 0.000000 -0.000000 1.019410 -3.711321 -0.000000 -0.000000 1.456275 0.000000 -43.629339 -0.000001 -0.000000 0.000002 1.471446 -0.000000 -1.133462 0.492234 0.625745 0.000000 0.917755 0.000004 132.324793 -0.000001 -0.629534 0.000001 0.940221 0.000000 1.709737 1.736555 -0.000001 0.113772 1.960660 -88.304401 89.636425 -0.000336 -0.669733 -0.113771 0.388340 -0.722266 3.566065 135.926597 
0.000000 0.000000 0.000000 -0.000000 1.019410 -4.469934 -0.000000 0.000000 1.456275 0.000000 -43.352023 0.000000 -0.000000 0.000002 1.471446 -0.000000 -1.133459 0.598808 0.625745 0.000000 0.917755 0.000004 131.772832 -0.000001 -0.629534 0.000001 0.940221 -0.000000 1.709737 2.094614 -0.000000 0.113772 1.960660 -88.304319 89.568075 -0.000284 -0.669733 -0.113771 0.388339 -0.725747 3.566003 136.122597 
0.000000 0.000000 0.000000 -0.000000 1.019410 -5.273235 -0.000000 -0.000000 1.456275 0.000000 -43.058370 -0.000001 -0.000000 0.000002 1.471446 -0.000000 -1.133458 0.711660 0.625744 0.000000 0.917755 0.000003 131.188386 -0.000001 -0.629534 0.000001 0.940221 -0.000000 1.709736 2.473765 -0.000000 0.113772 1.960661 -88.304258 89.495702 -0.000247 -0.669733 -0.113771 0.388340 -0.729432 3.565924 136.330139 
0.000000 0.000000 0.000000 -0.000000 1.019410 -6.114522 -0.000000 0.000000 1.456275 -0.000000 -42.750830 0.000000 -0.000000 0.000002 1.471445 0.000001 -1.133462 0.829848 0.625745 0.000000 0.917755 0.000005 130.576278 -0.000001 -0.629534 0.000001 0.940220 -0.000000 1.709736 2.870845 -0.000001 0.113772 1.960660 -88.304210 89.419901 -0.000217 -0.669733 -0.113771 0.388339 -0.733292 3.565827 136.547489 
0.000000 0.000000 0.000000 -0.000000 1.019410 -6.999667 -0.000000 0.000000 1.456275 0.000001 -42.427270 0.000000 -0.000001 0.000002 1.471446 -0.000000 -1.133462 0.954198 0.625744 0.000000 0.917755 0.000004 129.932273 -0.000001 -0.629534 0.000001 0.940221 -0.000000 1.709736 3.288625 -0.000001 0.113772 1.960660 -88.304169 89.340152 -0.000195 -0.669733 -0.113771 0.388339 -0.737352 3.565710 136.776177 
0.000000 0.000000 0.000000 -0.000000 1.019410 -7.984846 -0.000000 0.000000 1.456275 0.000001 -42.067132 -0.000000 -0.000000 0.000002 1.471446 -0.000000 -1.133459 1.092601 0.625745 0.000000 0.917755 0.000004 129.215458 -0.000001 -0.629534 0.000001 0.940221 0.000000 1.709737 3.753622 -0.000001 0.113772 1.960660 -88.304128 89.251386 -0.000166 -0.669733 -0.113771 0.388339 -0.741870 3.565560 137.030711 
0.000000 0.000000 0.000000 -0.000000 1.019410 -9.138813 -0.000000 -0.000000 1.456275 -0.000000 -41.645289 0.000000 -0.000000 0.000002 1.471446 -0.000000 -1.133461 1.254715 0.625744 0.000000 0.917755 0.000005 128.375878 -0.000001 -0.629534 0.000001 0.940221 0.000001 1.709736 4.298285 -0.000001 0.113772 1.960661 -88.304101 89.147417 -0.000146 -0.669733 -0.113771 0.388340 -0.747163 3.565359 137.328849 
0.000000 0.000000 0.000000 -0.000000 1.019410 -10.530320 -0.000000 -0.000000 1.456275 0.000001 -41.136614 -0.000001 -0.000001 0.000002 1.471446 0.000000 -1.133461 1.450201 0.625744 0.000000 0.917755 0.000004 127.363425 -0.000001 -0.629534 0.000001 0.940221 0.000000 1.709737 4.955062 -0.000001 0.113772 1.960660 -88.304073 89.022042 -0.000127 -0.669733 -0.113771 0.388339 -0.753542 3.565081 137.688363 
0.000000 0.000000 0.000000 -0.000000 1.019410 -12.228121 -0.000000 0.000000 1.456275 0.000001 -40.515972 0.000000 -0.000000 0.000002 1.471446 0.000000 -1.133459 1.688717 0.625745 0.000000 0.917755 0.000004 126.128158 -0.000000 -0.629534 0.000001 0.940221 0.000000 1.709737 5.756409 -0.000001 0.113772 1.960660 -88.304032 88.869073 -0.000105 -0.669733 -0.113771 0.388339 -0.761323 3.564686 138.127011 
0.000000 0.000000 0.000000 -0.000000 1.019410 -14.245226 -0.000000 0.000000 1.456275 -0.000001 -39.778605 -0.000001 -0.000000 0.000002 1.471446 0.000001 -1.133462 1.972089 0.625745 0.000000 0.917755 0.000007 124.660556 -0.000002 -0.629534 0.000001 0.940221 0.000001 1.709736 6.708465 -0.000000 0.113772 1.960661 -88.304026 88.687336 -0.000071 -0.669733 -0.113771 0.388340 -0.770564 3.564140 138.648141 
0.000000 0.000000 0.000000 -0.000000 1.019410 -16.371663 -0.000000 -0.000000 1.456275 -0.000001 -39.001285 0.000002 -0.000000 0.000002 1.471446 -0.000001 -1.133459 2.270824 0.625745 0.000000 0.917755 0.000002 123.113408 -0.000003 -0.629534 0.000001 0.940221 0.000001 1.709736 7.712125 -0.000001 0.113772 1.960661 -88.303998 88.495749 -0.000062 -0.669733 -0.113771 0.388340 -0.780300 3.563474 139.197534 
0.000000 0.000000 0.000000 -0.000000 1.019410 -18.341720 -0.000000 0.000000 1.456275 0.000000 -38.281127 -0.000001 -0.000000 0.000002 1.471446 0.000002 -1.133460 2.547586 0.625745 0.000000 0.917755 0.000004 121.680039 -0.000003 -0.629534 0.000001 0.940221 -0.000002 1.709737 8.641975 -0.000002 0.113772 1.960661 -88.303971 88.318246 -0.000070 -0.669733 -0.113771 0.388341 -0.789313 3.562772 139.706520 
0.000000 0.000000 0.000000 -0.000000 1.019410 -19.969550 -0.000000 0.000000 1.456275 0.000001 -37.686061 -0.000000 -0.000000 0.000002 1.471446 -0.000001 -1.133456 2.776271 0.625745 0.000000 0.917755 -0.000001 120.495670 -0.000001 -0.629534 0.000001 0.940221 -0.000001 1.709737 9.410300 -0.000001 0.113772 1.960660 -88.303985 88.171581 -0.000065 -0.669733 -0.113771 0.388339 -0.796755 3.562134 140.127068 
0.000000 0.000000 0.000000 -0.000000 1.019410 -21.388778 -0.000000 -0.000000 1.456275 -0.000001 -37.167253 -0.000001 -0.000000 0.000002 1.471446 -0.000002 -1.133459 2.975651 0.625745 0.000000 0.917755 0.000007 119.463069 -0.000004 -0.629533 0.000001 0.940221 0.000002 1.709737 10.080161 -0.000002 0.113772 1.960660 -88.303978 88.043707 -0.000082 -0.669733 -0.113771 0.388340 -0.803239 3.561532 140.493754 
